# xmcd CD database file generated by Grip 3.2.0
# 
# Track frame offsets:
#       183
#       13518
#       35445
#       55935
#       67035
#       83968
#       99350
#       114618
#       127903
#       143388
#       161975
#       176610
#       196423
#       229340
#       248280
#       266328
# 
# Disc length: 3745 seconds
# 
# Revision: 2
# Processed by: cddbd v1.5.1PL0 Copyright (c) Steve Scherf et al.
# Submitted via: Grip 3.2.0
# 
DISCID=cf0e9f10
DTITLE=Various Blues - Midnight Blue
DYEAR=1900
DGENRE=Blues
TTITLE0=Les Brown Orchestra - Midnight Sun
TTITLE1=Zoot Sims - You're Driving Me Crazy
TTITLE2=Gil Goldstein - In My Life
TTITLE3=The Johnny Smith Quartet - Where or When
TTITLE4=Chet Baker - Let's Get Lost
TTITLE5=Bobby Hackett - I Guess I'll Have To Change My Plan
TTITLE6=Duke Ellington - Warm Valley
TTITLE7=Supersax - I Didn't Know What Time It Was
TTITLE8=Count Basie - After Supper
TTITLE9=Cannonball Adderley - Dancing In The Dark
TTITLE10=Birelli Lagrene - Acoustic Moments
TTITLE11=Elaine Elias - One Note Samba
TTITLE12=Horace Silver - Song For My Father
TTITLE13=Gil Evans - 'Round Midnight
TTITLE14=Kenny Burrell - Midnight Blue
TTITLE15=Nat King Cole - Startdust
EXTD=
EXTT0=
EXTT1=
EXTT2=
EXTT3=
EXTT4=
EXTT5=
EXTT6=
EXTT7=
EXTT8=
EXTT9=
EXTT10=
EXTT11=
EXTT12=
EXTT13=
EXTT14=
EXTT15=
PLAYORDER=
